<svg width="100" height="100" viewBox="0 0 100 100" fill="none" xmlns="http://www.w3.org/2000/svg">
<path d="M15.3604 23.8396C15.1938 19.025 18.9458 14.5834 24.0188 14.5834H75.9896C81.0625 14.5834 84.8146 19.025 84.6458 23.8396C84.4854 28.4667 84.6937 34.4584 86.2021 39.3459C87.6208 43.9438 89.9542 46.9542 93.6875 47.6396C94.1167 47.7188 94.4437 48.0667 94.4437 48.5042V51.5C94.4437 51.9375 94.1167 52.2855 93.6875 52.3646C89.9542 53.048 87.6208 56.0584 86.2021 60.6584C84.6937 65.5438 84.4854 71.5375 84.6458 76.1646C84.8125 80.975 81.0604 85.4167 75.9896 85.4167H24.0188C18.9479 85.4167 15.1938 80.975 15.3625 76.1605C15.5229 71.5334 15.3146 65.5417 13.8063 60.6542C12.3875 56.0563 10.0479 53.0459 6.31458 52.3605C5.88542 52.2813 5.55833 51.9334 5.55833 51.4959V48.5C5.55833 48.0625 5.88542 47.7146 6.31458 47.6355C10.0479 46.9521 12.3875 43.9417 13.8063 39.3417C15.3125 34.4584 15.5229 28.4667 15.3604 23.8396Z" fill="url(#paint0_linear_61_109)"/>
<path d="M56.4021 48.8833V48.825C60.2625 48.1583 63.275 44.5396 63.275 40.5541C63.275 37.7375 62.1917 35.35 60.1417 33.6541C58.0979 31.9625 55.2313 31.0687 51.8479 31.0687H36.3542V68.9166H51.9271C55.9729 68.9166 59.3333 67.9291 61.6417 66.0583C63.9521 64.1854 65.175 61.4604 65.175 58.1771C65.1729 53.2166 61.6521 49.4916 56.4021 48.8833ZM49.1458 47.1H42.5188V36.0208H50.4021C54.7271 36.0208 57.1083 37.9187 57.1083 41.3646C57.1104 45.0625 54.2813 47.1 49.1458 47.1ZM42.5188 51.7375H50.35C56.0083 51.7375 58.875 53.7812 58.875 57.8125C58.875 61.8375 56.0479 63.9646 50.6979 63.9646H42.5188V51.7375Z" fill="white"/>
<defs>
<linearGradient id="paint0_linear_61_109" x1="50" y1="85.4167" x2="50" y2="14.5834" gradientUnits="userSpaceOnUse">
<stop stop-color="#643499"/>
<stop offset="0.011" stop-color="#68369F"/>
<stop offset="0.135" stop-color="#773DB6"/>
<stop offset="0.193" stop-color="#8042C3"/>
<stop offset="0.248" stop-color="#8343C8"/>
<stop offset="0.388" stop-color="#8444C9"/>
<stop offset="0.732" stop-color="#9751D2"/>
<stop offset="0.997" stop-color="#9C55D4"/>
<stop offset="0.998" stop-color="#9C55D4"/>
<stop offset="1" stop-color="#9C55D4"/>
</linearGradient>
</defs>
</svg>
