<svg width="201" height="201" viewBox="0 0 201 201" fill="none" xmlns="http://www.w3.org/2000/svg">
<path d="M9.08302 100.292C4.38859 100.292 0.545498 96.4791 0.944058 91.8017C1.81511 81.5787 4.25583 71.5333 8.19506 62.0232C13.2205 49.8906 20.5865 38.8667 29.8723 29.5808C39.1582 20.295 50.1821 12.929 62.3147 7.90356C74.4472 2.87809 87.4508 0.291516 100.583 0.291516C113.715 0.291516 126.719 2.87809 138.851 7.90356C150.984 12.929 162.008 20.295 171.294 29.5808C180.58 38.8667 187.945 49.8906 192.971 62.0232C196.91 71.5333 199.351 81.5787 200.222 91.8017C200.621 96.4791 196.777 100.292 192.083 100.292C187.389 100.292 183.628 96.4761 183.148 91.8063C182.327 83.8179 180.35 75.9757 177.265 68.5288C173.094 58.4588 166.98 49.3089 159.273 41.6016C151.566 33.8944 142.416 27.7806 132.346 23.6095C122.276 19.4384 111.483 17.2915 100.583 17.2915C89.6833 17.2915 78.8903 19.4384 68.8203 23.6095C58.7503 27.7806 49.6004 33.8944 41.8932 41.6016C34.1859 49.3089 28.0722 58.4588 23.901 68.5288C20.8164 75.9757 18.8389 83.8179 18.0179 91.8063C17.538 96.4761 13.7774 100.292 9.08302 100.292Z" fill="#6C6C6C"/>
<path d="M9.08302 100.292C4.38859 100.292 0.545468 96.4786 0.943921 91.8012C2.77943 70.2541 11.564 49.7953 26.0936 33.5732C42.5207 15.2327 65.1367 3.59726 89.6096 0.895413C114.083 -1.80641 138.692 4.61534 158.724 18.9307C176.443 31.5925 189.479 49.6423 195.97 70.27C197.38 74.7479 194.461 79.3073 189.879 80.3314C185.298 81.3555 180.796 78.4518 179.309 73.9991C173.783 57.4513 163.152 42.9891 148.84 32.762C132.213 20.8803 111.788 15.5502 91.4751 17.7928C71.1625 20.0353 52.3913 29.6927 38.7568 44.9153C27.021 58.0181 19.8011 74.451 18.0178 91.8058C17.5379 96.4756 13.7774 100.292 9.08302 100.292Z" fill="url(#paint0_linear_85_17)"/>
<path d="M78.5165 100L83.604 94.05C83.504 94.15 83.329 94.25 83.079 94.35C82.829 94.4417 82.4998 94.4875 82.0915 94.4875C81.2332 94.4875 80.404 94.2667 79.604 93.825C78.8123 93.3833 78.1582 92.7542 77.6415 91.9375C77.1332 91.1125 76.879 90.1292 76.879 88.9875C76.879 87.8625 77.154 86.8667 77.704 86C78.2623 85.1333 79.004 84.45 79.929 83.95C80.854 83.45 81.879 83.2 83.004 83.2C84.154 83.2 85.1915 83.4375 86.1165 83.9125C87.0415 84.3792 87.779 85.0583 88.329 85.95C88.8873 86.8333 89.1665 87.8917 89.1665 89.125C89.1665 90.4833 88.9457 91.6292 88.504 92.5625C88.0623 93.4875 87.5582 94.2917 86.9915 94.975L82.8915 100H78.5165ZM83.0165 91.5C83.5082 91.5 83.9498 91.3833 84.3415 91.15C84.7415 90.9167 85.0582 90.6 85.2915 90.2C85.5332 89.8 85.654 89.3583 85.654 88.875C85.654 88.3917 85.5332 87.95 85.2915 87.55C85.0582 87.15 84.7415 86.8333 84.3415 86.6C83.9415 86.3667 83.4998 86.25 83.0165 86.25C82.5332 86.25 82.0915 86.3708 81.6915 86.6125C81.2998 86.8458 80.9832 87.1625 80.7415 87.5625C80.5082 87.9542 80.3915 88.3917 80.3915 88.875C80.3915 89.3583 80.5082 89.8 80.7415 90.2C80.9832 90.6 81.304 90.9167 81.704 91.15C82.104 91.3833 82.5415 91.5 83.0165 91.5ZM91.1915 86.8C91.2832 86.4667 91.4623 86.0917 91.729 85.675C91.9957 85.2583 92.3582 84.8625 92.8165 84.4875C93.2832 84.1125 93.8498 83.8042 94.5165 83.5625C95.1915 83.3208 95.9707 83.2 96.854 83.2C97.904 83.2 98.8332 83.3958 99.6415 83.7875C100.458 84.1708 101.1 84.7083 101.567 85.4C102.033 86.0917 102.267 86.9 102.267 87.825C102.267 88.3833 102.167 88.8958 101.967 89.3625C101.767 89.8208 101.508 90.2042 101.192 90.5125C100.875 90.8208 100.542 91.0208 100.192 91.1125C100.6 91.1625 101.008 91.35 101.417 91.675C101.833 92 102.183 92.4333 102.467 92.975C102.758 93.5167 102.904 94.1542 102.904 94.8875C102.904 95.9375 102.637 96.8708 102.104 97.6875C101.579 98.4958 100.858 99.1333 99.9415 99.6C99.0248 100.067 97.9748 100.3 96.7915 100.3C95.5665 100.3 94.5248 100.083 93.6665 99.65C92.8165 99.2167 92.1373 98.6875 91.629 98.0625C91.129 97.4375 90.7957 96.8333 90.629 96.25L94.054 94.55C94.154 94.9083 94.3207 95.2833 94.554 95.675C94.7957 96.0667 95.104 96.4 95.479 96.675C95.854 96.9417 96.2873 97.075 96.779 97.075C97.2873 97.075 97.7207 96.975 98.079 96.775C98.4373 96.575 98.7123 96.3042 98.904 95.9625C99.104 95.6125 99.204 95.2125 99.204 94.7625C99.204 94.2958 99.0915 93.9083 98.8665 93.6C98.6498 93.2917 98.3582 93.0625 97.9915 92.9125C97.6248 92.7625 97.2207 92.6875 96.779 92.6875H96.454V90.0125H96.879C97.2623 90.0125 97.6082 89.9375 97.9165 89.7875C98.2248 89.6292 98.4665 89.4083 98.6415 89.125C98.8248 88.8333 98.9165 88.4917 98.9165 88.1C98.9165 87.575 98.7373 87.1292 98.379 86.7625C98.0207 86.3875 97.4998 86.2 96.8165 86.2C96.3998 86.2 96.0332 86.275 95.7165 86.425C95.4082 86.5667 95.1498 86.75 94.9415 86.975C94.7332 87.1917 94.5665 87.4167 94.4415 87.65C94.3248 87.875 94.2498 88.0708 94.2165 88.2375L91.1915 86.8ZM117.669 83.5H120.144L109.819 100H107.344L117.669 83.5ZM104.456 87.1375C104.456 86.4125 104.639 85.7542 105.006 85.1625C105.373 84.5625 105.881 84.0875 106.531 83.7375C107.189 83.3792 107.952 83.2 108.819 83.2C109.677 83.2 110.431 83.3792 111.081 83.7375C111.731 84.0875 112.239 84.5625 112.606 85.1625C112.973 85.7542 113.156 86.4125 113.156 87.1375C113.156 87.8458 112.973 88.5 112.606 89.1C112.248 89.6917 111.744 90.1708 111.094 90.5375C110.444 90.8958 109.685 91.075 108.819 91.075C107.944 91.075 107.177 90.8958 106.519 90.5375C105.869 90.1708 105.36 89.6917 104.994 89.1C104.635 88.5 104.456 87.8458 104.456 87.1375ZM107.031 87.1375C107.031 87.6792 107.194 88.1167 107.519 88.45C107.852 88.7833 108.281 88.95 108.806 88.95C109.323 88.95 109.739 88.7833 110.056 88.45C110.381 88.1167 110.544 87.6792 110.544 87.1375C110.544 86.6042 110.381 86.1667 110.056 85.825C109.739 85.475 109.323 85.3 108.806 85.3C108.289 85.3 107.864 85.475 107.531 85.825C107.198 86.1667 107.031 86.6042 107.031 87.1375ZM114.294 96.3625C114.294 95.6375 114.477 94.9792 114.844 94.3875C115.21 93.7958 115.723 93.3208 116.381 92.9625C117.039 92.6042 117.798 92.425 118.656 92.425C119.514 92.425 120.269 92.6042 120.919 92.9625C121.577 93.3208 122.089 93.7958 122.456 94.3875C122.823 94.9792 123.006 95.6375 123.006 96.3625C123.006 97.0708 122.823 97.725 122.456 98.325C122.098 98.925 121.589 99.4042 120.931 99.7625C120.281 100.121 119.523 100.3 118.656 100.3C117.781 100.3 117.014 100.121 116.356 99.7625C115.706 99.4042 115.198 98.925 114.831 98.325C114.473 97.725 114.294 97.0708 114.294 96.3625ZM116.881 96.3625C116.881 96.9042 117.044 97.3417 117.369 97.675C117.694 98.0083 118.123 98.175 118.656 98.175C119.164 98.175 119.577 98.0083 119.894 97.675C120.219 97.3417 120.381 96.9042 120.381 96.3625C120.381 95.8292 120.219 95.3917 119.894 95.05C119.577 94.7 119.164 94.525 118.656 94.525C118.131 94.525 117.702 94.7 117.369 95.05C117.044 95.3917 116.881 95.8292 116.881 96.3625Z" fill="white"/>
<defs>
<linearGradient id="paint0_linear_85_17" x1="14.0644" y1="94.0441" x2="183.54" y2="85.5492" gradientUnits="userSpaceOnUse">
<stop stop-color="#763CAC"/>
<stop offset="1" stop-color="#F729E3" stop-opacity="0.57"/>
</linearGradient>
</defs>
</svg>
