<svg width="100" height="100" viewBox="0 0 100 100" fill="none" xmlns="http://www.w3.org/2000/svg">
<path d="M29.4271 73.3084L9.24584 57.423L19.2708 38.8021L48.0458 50L29.4271 73.3084Z" fill="#F57C00"/>
<path d="M91.6667 30.6L90.1042 78.7771L58.0729 91.6666L38.8021 79.1666L66.9271 50L91.6667 30.6Z" fill="#1E88E5"/>
<path d="M91.6667 30.6L66.275 60.5479L54.6875 22.9166L65.7562 9.63538L91.6667 30.6Z" fill="#2962FF"/>
<path d="M72.2667 40.8854L48.4375 77.475L15.1042 89.5833L20.4438 70.8333L27.3438 47.6562L72.2667 40.8854Z" fill="#AB47BC"/>
<path d="M27.3438 47.6563L8.33333 41.2771L20.4438 8.33337L46.4854 11.4584L72.2667 40.8855L27.3438 47.6563Z" fill="#E91E63"/>
<path d="M22.9167 22.9166H75V75H22.9167V22.9166Z" fill="#000001"/>
<path d="M29.1667 65.625H47.9167V68.75H29.1667V65.625ZM42.7083 33.0729V29.1666H32.2917V33.0729H35.4167V46.6145H32.2917V50.5208H42.7083V46.6145H39.9146V33.0729H42.7083ZM52.8646 51.0416C48.9583 51.0416 46.8833 48.7541 46.0938 47.8166L49.0333 44.4729C49.5646 45.0604 51.0417 46.6145 52.8646 46.6145C55.2083 46.6145 55.7292 44.2708 55.7292 42.9687V29.1666H60.4167V42.9687C60.4167 44.2687 60.4167 46.3541 58.8542 48.4375C57.7604 49.8958 55.2083 51.0416 52.8646 51.0416Z" fill="white"/>
</svg>
