<svg width="100" height="100" viewBox="0 0 100 100" fill="none" xmlns="http://www.w3.org/2000/svg">
<path d="M49.2709 51.8709C47.1917 48.5188 45.6834 45.7396 43.5938 40.5063C40.0604 31.6667 65.0834 23.6792 54.9375 8.3313C59.3354 18.9334 39.1521 25.4875 37.2771 34.3167C35.5625 42.4375 49.2604 51.8709 49.2709 51.8709Z" fill="#F44336"/>
<path d="M49.7459 35.9792C49.3459 41.2209 54.3896 44.0146 54.5354 47.8438C54.6521 50.9605 51.5209 53.5584 51.5209 53.5584C51.5209 53.5584 57.2042 52.4417 58.9771 47.6875C60.9459 42.4084 55.1563 38.7938 55.7521 34.5667C56.3084 30.5292 68.3167 23.0188 68.3167 23.0188C68.3167 23.0188 50.6479 24.1896 49.7459 35.9792Z" fill="#F44336"/>
<path d="M66.8417 52.198C70.4958 51.3771 73.5771 53.7042 73.5771 56.3855C73.5771 62.4292 65.2 68.1417 65.2 68.1417C65.2 68.1417 78.1688 66.5959 78.1688 56.673C78.1688 50.1105 71.8 48.4709 66.8417 52.198ZM60.6854 57.073C60.6854 57.073 64.7292 54.1917 65.8063 53.1105C55.8833 55.2167 33.2271 55.5001 33.2271 53.6709C33.2271 51.9855 40.5333 50.2584 40.5333 50.2584C40.5333 50.2584 24.3396 50.0251 24.3396 54.8021C24.3396 59.7813 45.5375 60.1376 60.6854 57.073Z" fill="#1565C0"/>
<path d="M58.1979 61.6063C48.8042 64.7293 31.5021 63.7313 36.6271 59.5376C34.1313 59.5376 30.4313 61.5438 30.4313 63.473C30.4313 67.3418 49.1438 70.3293 62.9938 64.6647L58.1979 61.6063Z" fill="#1565C0"/>
<path d="M38.9292 68.2063C35.5208 68.2063 33.3146 70.4021 33.3146 72.0021C33.3146 76.9834 53.6479 77.4855 61.7042 72.4292L56.5833 69.0292C50.5646 71.675 35.4458 72.0396 38.9292 68.2063Z" fill="#1565C0"/>
<path d="M75.5854 76.3167C75.5854 74.3667 73.3875 73.448 72.6 73.0084C77.2417 84.2021 26.1063 83.3334 26.1063 76.725C26.1063 75.223 29.8708 73.7521 33.35 74.448L30.3917 72.7C23.4583 71.6125 18.75 74.6605 18.75 77.1188C18.75 88.5834 75.5854 88.0313 75.5854 76.3167Z" fill="#1565C0"/>
<path d="M81.25 80.425C72.6125 88.9563 50.7104 92.0646 28.6854 86.7938C50.7104 96.175 81.1458 90.8917 81.25 80.425Z" fill="#1565C0"/>
</svg>
