<svg width="100" height="100" viewBox="0 0 100 100" fill="none" xmlns="http://www.w3.org/2000/svg">
<path d="M82.8125 81.8248C65.2364 99.3953 36.7442 99.3914 19.174 81.815C1.60377 64.2385 1.60965 35.7458 19.1858 18.1752C36.7619 0.604664 65.254 0.608581 82.8243 18.185C86.3618 21.7246 89.2866 25.8299 91.4733 30.3327C99.8581 47.5881 96.3812 68.2616 82.8125 81.8248Z" fill="#FD6C35"/>
<path d="M65.6391 36.261C65.5094 35.7657 65.2984 35.3375 65.0016 34.9954L47.3969 52.7829L49.6703 55.0188L62.8906 41.6094C62.9297 41.5719 65.7797 38.7594 65.6391 36.261Z" fill="#FFF8EE"/>
<path d="M48.5688 55.4672L46.4391 53.3734L43.6922 56.2172L48.5688 55.4672Z" fill="#FFF8EE"/>
<path d="M49.5406 56.4235L42.4375 57.5157L29.4188 70.9906L34.8828 76.3625L35.1563 76.3672L33.7891 70.7031C33.7891 70.7031 41.3203 67.2828 51.3938 58.2438L49.5406 56.4235Z" fill="#FFF8EE"/>
<path d="M28.6594 71.7766L24.4141 76.1719L33.2953 76.3329L28.6594 71.7766Z" fill="#FFF8EE"/>
<path d="M63.661 42.3844L50.45 55.7844L52.2047 57.5094C52.3828 57.3469 52.5547 57.1969 52.7328 57.0313C62.2531 48.2032 64.2547 44.4375 65.2672 40.4329C64.5078 41.5469 63.7281 42.3204 63.661 42.3844Z" fill="#FFF8EE"/>
<path d="M46.6172 52.0156L64.1328 34.3156C62.7656 33.5938 60.6578 33.686 58.2031 34.5703C53.3203 36.3281 47.4609 42.7735 47.4609 42.7735L42.7609 48.225L46.6172 52.0156Z" fill="#FFF8EE"/>
<path d="M42.0453 49.0547L37.6953 54.1016L45.6703 52.6172L42.0453 49.0547Z" fill="#FFF8EE"/>
<path d="M67.9672 30.8484C67.8641 30.7422 67.8078 30.5969 67.8141 30.4484C67.8188 30.3 67.8844 30.1594 67.9953 30.0609L74.2734 24.4375C73.1422 23.5766 71.7469 23.0469 70.2156 23.0469C66.4937 23.0469 63.4766 26.0641 63.4766 29.7859C63.4766 33.5078 66.4937 36.525 70.2156 36.525C71.175 36.525 72.0828 36.3187 72.9094 35.9562L67.9672 30.8484Z" fill="#FFF8EE"/>
<path d="M69.1469 30.4969L73.9047 35.4141C75.7375 34.2094 76.9516 32.1422 76.9516 29.7844C76.9516 27.9906 76.2391 26.3719 75.0969 25.1641L69.1469 30.4969ZM75.2938 31.8859C75.1984 32.0781 75.0047 32.1875 74.8047 32.1875C74.7234 32.1875 74.6391 32.1688 74.5609 32.1297C74.2906 31.9953 74.1813 31.6672 74.3172 31.3953C74.9563 30.1188 74.5281 29.1844 74.5109 29.1453C74.3828 28.875 74.4953 28.5484 74.7641 28.4172C75.0328 28.2875 75.3563 28.3922 75.4906 28.6609C75.5188 28.7188 76.1875 30.0984 75.2938 31.8859Z" fill="#FFF8EE"/>
</svg>
