<svg width="201" height="201" viewBox="0 0 201 201" fill="none" xmlns="http://www.w3.org/2000/svg">
<path d="M9.08302 100.292C4.38859 100.292 0.545498 96.4791 0.944058 91.8017C1.81511 81.5787 4.25583 71.5333 8.19506 62.0232C13.2205 49.8906 20.5865 38.8667 29.8723 29.5808C39.1582 20.295 50.1821 12.929 62.3147 7.90356C74.4472 2.87809 87.4508 0.291516 100.583 0.291516C113.715 0.291516 126.719 2.87809 138.851 7.90356C150.984 12.929 162.008 20.295 171.294 29.5808C180.58 38.8667 187.945 49.8906 192.971 62.0232C196.91 71.5333 199.351 81.5787 200.222 91.8017C200.621 96.4791 196.777 100.292 192.083 100.292C187.389 100.292 183.628 96.4761 183.148 91.8063C182.327 83.8179 180.35 75.9757 177.265 68.5288C173.094 58.4588 166.98 49.3089 159.273 41.6016C151.566 33.8944 142.416 27.7806 132.346 23.6095C122.276 19.4384 111.483 17.2915 100.583 17.2915C89.6833 17.2915 78.8903 19.4384 68.8203 23.6095C58.7503 27.7806 49.6004 33.8944 41.8932 41.6016C34.1859 49.3089 28.0722 58.4588 23.901 68.5288C20.8164 75.9757 18.8389 83.8179 18.0179 91.8063C17.538 96.4761 13.7774 100.292 9.08302 100.292Z" fill="#6C6C6C"/>
<path d="M9.08302 100.292C4.38859 100.292 0.545468 96.479 0.943936 91.8015C2.64392 71.8466 10.3069 52.7884 23.0334 37.1562C37.555 19.3193 57.7815 7.03349 80.3043 2.36923C102.827 -2.29502 126.269 0.94743 146.68 11.5502C164.569 20.8423 179.17 35.2897 188.655 52.9283C190.879 57.0628 188.866 62.0881 184.558 63.9525C180.249 65.8169 175.283 63.8084 172.988 59.7133C165.105 45.6482 153.261 34.125 138.844 26.6362C121.903 17.8359 102.446 15.1447 83.7517 19.016C65.0577 22.8874 48.2698 33.0846 36.2169 47.8892C25.9601 60.4877 19.666 75.7673 18.0178 91.806C17.5379 96.4758 13.7774 100.292 9.08302 100.292Z" fill="url(#paint0_linear_85_21)"/>
<path d="M83.154 100.3C82.0707 100.3 81.0707 100.092 80.154 99.675C79.2373 99.2583 78.4998 98.6833 77.9415 97.95C77.3832 97.2083 77.104 96.3625 77.104 95.4125C77.104 94.6458 77.229 93.9875 77.479 93.4375C77.7373 92.8875 78.0873 92.425 78.529 92.05C78.979 91.6667 79.4748 91.35 80.0165 91.1C79.6082 90.8667 79.2332 90.5958 78.8915 90.2875C78.5582 89.9708 78.2915 89.5917 78.0915 89.15C77.8998 88.7083 77.804 88.1667 77.804 87.525C77.804 86.6417 78.0457 85.8792 78.529 85.2375C79.0123 84.5875 79.654 84.0875 80.454 83.7375C81.2623 83.3792 82.154 83.2 83.129 83.2C84.1207 83.2 85.0123 83.3792 85.804 83.7375C86.604 84.0875 87.2332 84.5875 87.6915 85.2375C88.1582 85.8792 88.3915 86.6417 88.3915 87.525C88.3915 88.475 88.1873 89.2208 87.779 89.7625C87.3707 90.2958 86.8582 90.7417 86.2415 91.1C86.7915 91.35 87.2832 91.6667 87.7165 92.05C88.1582 92.425 88.5082 92.8875 88.7665 93.4375C89.0332 93.9875 89.1665 94.6458 89.1665 95.4125C89.1665 96.3625 88.8873 97.2083 88.329 97.95C87.779 98.6833 87.0457 99.2583 86.129 99.675C85.2207 100.092 84.229 100.3 83.154 100.3ZM83.129 97.05C83.529 97.05 83.8873 96.9542 84.204 96.7625C84.529 96.5708 84.7873 96.3167 84.979 96C85.179 95.675 85.279 95.3167 85.279 94.925C85.279 94.5333 85.179 94.175 84.979 93.85C84.7873 93.525 84.529 93.2708 84.204 93.0875C83.8873 92.8958 83.529 92.8 83.129 92.8C82.729 92.8 82.3665 92.8958 82.0415 93.0875C81.7248 93.2792 81.4665 93.5375 81.2665 93.8625C81.0748 94.1792 80.979 94.5333 80.979 94.925C80.979 95.3167 81.0748 95.675 81.2665 96C81.4665 96.3167 81.7248 96.5708 82.0415 96.7625C82.3665 96.9542 82.729 97.05 83.129 97.05ZM83.1415 89.925C83.4915 89.925 83.8082 89.8417 84.0915 89.675C84.3832 89.5 84.6165 89.2667 84.7915 88.975C84.9665 88.675 85.054 88.35 85.054 88C85.054 87.65 84.9665 87.3333 84.7915 87.05C84.6165 86.7583 84.3832 86.525 84.0915 86.35C83.8082 86.175 83.4915 86.0875 83.1415 86.0875C82.7915 86.0875 82.4707 86.175 82.179 86.35C81.8873 86.525 81.654 86.7583 81.479 87.05C81.304 87.3333 81.2165 87.65 81.2165 88C81.2165 88.35 81.304 88.6708 81.479 88.9625C81.654 89.2542 81.8873 89.4875 82.179 89.6625C82.4707 89.8375 82.7915 89.925 83.1415 89.925ZM91.5927 83.5H103.455V86.0125L95.4927 100H91.3677L99.0927 86.75H91.5927V83.5ZM117.791 83.5H120.266L109.941 100H107.466L117.791 83.5ZM104.578 87.1375C104.578 86.4125 104.762 85.7542 105.128 85.1625C105.495 84.5625 106.003 84.0875 106.653 83.7375C107.312 83.3792 108.074 83.2 108.941 83.2C109.799 83.2 110.553 83.3792 111.203 83.7375C111.853 84.0875 112.362 84.5625 112.728 85.1625C113.095 85.7542 113.278 86.4125 113.278 87.1375C113.278 87.8458 113.095 88.5 112.728 89.1C112.37 89.6917 111.866 90.1708 111.216 90.5375C110.566 90.8958 109.807 91.075 108.941 91.075C108.066 91.075 107.299 90.8958 106.641 90.5375C105.991 90.1708 105.482 89.6917 105.116 89.1C104.757 88.5 104.578 87.8458 104.578 87.1375ZM107.153 87.1375C107.153 87.6792 107.316 88.1167 107.641 88.45C107.974 88.7833 108.403 88.95 108.928 88.95C109.445 88.95 109.862 88.7833 110.178 88.45C110.503 88.1167 110.666 87.6792 110.666 87.1375C110.666 86.6042 110.503 86.1667 110.178 85.825C109.862 85.475 109.445 85.3 108.928 85.3C108.412 85.3 107.987 85.475 107.653 85.825C107.32 86.1667 107.153 86.6042 107.153 87.1375ZM114.416 96.3625C114.416 95.6375 114.599 94.9792 114.966 94.3875C115.332 93.7958 115.845 93.3208 116.503 92.9625C117.162 92.6042 117.92 92.425 118.778 92.425C119.637 92.425 120.391 92.6042 121.041 92.9625C121.699 93.3208 122.212 93.7958 122.578 94.3875C122.945 94.9792 123.128 95.6375 123.128 96.3625C123.128 97.0708 122.945 97.725 122.578 98.325C122.22 98.925 121.712 99.4042 121.053 99.7625C120.403 100.121 119.645 100.3 118.778 100.3C117.903 100.3 117.137 100.121 116.478 99.7625C115.828 99.4042 115.32 98.925 114.953 98.325C114.595 97.725 114.416 97.0708 114.416 96.3625ZM117.003 96.3625C117.003 96.9042 117.166 97.3417 117.491 97.675C117.816 98.0083 118.245 98.175 118.778 98.175C119.287 98.175 119.699 98.0083 120.016 97.675C120.341 97.3417 120.503 96.9042 120.503 96.3625C120.503 95.8292 120.341 95.3917 120.016 95.05C119.699 94.7 119.287 94.525 118.778 94.525C118.253 94.525 117.824 94.7 117.491 95.05C117.166 95.3917 117.003 95.8292 117.003 96.3625Z" fill="white"/>
<defs>
<linearGradient id="paint0_linear_85_21" x1="14.0644" y1="94.0441" x2="183.54" y2="85.5492" gradientUnits="userSpaceOnUse">
<stop stop-color="#763CAC"/>
<stop offset="1" stop-color="#F729E3" stop-opacity="0.57"/>
</linearGradient>
</defs>
</svg>
