<svg width="100" height="100" viewBox="0 0 100 100" fill="none" xmlns="http://www.w3.org/2000/svg">
<g clip-path="url(#clip0_73_28)">
<path d="M52.0276 66.3286L35.699 50L52.0276 33.6714V0L5.39422 46.6333C4.5015 47.5263 4 48.7373 4 50C4 51.2627 4.5015 52.4737 5.39422 53.3667L52.0276 100C52.0276 100 59.1704 95.2381 59.1704 83.3333C58.8009 77.0158 56.2803 71.015 52.0276 66.3286Z" fill="#2684FF"/>
<path d="M38.249 46.8262L38.5609 47.1381L52.0276 33.6714V0L26.7871 25.2381C28.685 33.3011 32.6331 40.7373 38.249 46.8262Z" fill="#1D78F2"/>
<path d="M41.6942 43.5357L41.9323 43.7738L52.0323 33.6738V0L30.918 21.1095C32.2419 29.4772 35.9883 37.2737 41.6942 43.5357Z" fill="#126AE5"/>
<path d="M52.0275 33.6714V0L35.3608 16.6667C35.7257 25.5124 39.2491 33.9344 45.2918 40.4048L52.0275 33.6714Z" fill="#0B60DA"/>
<path d="M40.1228 16.6667C40.1228 27.9667 48.2347 36.5976 48.6586 37.0381L52.0276 33.6714V0L40.5467 11.481C40.2619 13.1948 40.1201 14.9293 40.1228 16.6667Z" fill="#0154CE"/>
<path d="M52.0275 33.6714L68.3537 50L52.0275 66.3286V100L98.6585 53.3667C99.5512 52.4737 100.053 51.2627 100.053 50C100.053 48.7373 99.5512 47.5263 98.6585 46.6333L52.0275 0C52.0275 0 44.8846 4.7619 44.8846 16.6667C45.2541 22.9842 47.7748 28.985 52.0275 33.6714Z" fill="#2482FD"/>
<path d="M65.8038 53.1738L65.4919 52.8619L52.0276 66.3286V100L77.2657 74.7619C75.3678 66.6989 71.4197 59.2628 65.8038 53.1738Z" fill="#1D78F2"/>
<path d="M62.3585 56.4643L62.1204 56.2262L52.0228 66.3262V100L73.1323 78.8905C71.8083 70.5233 68.0629 62.7271 62.3585 56.4643Z" fill="#126AE5"/>
<path d="M52.0276 66.3285V100L68.6943 83.3333C68.3289 74.4872 64.8047 66.0651 58.7609 59.5952L52.0276 66.3285Z" fill="#0B60DA"/>
<path d="M63.9323 83.3333C63.9323 72.0333 55.8204 63.4024 55.3943 62.9619L52.0276 66.3286V100L63.5085 88.5191C63.7921 86.8051 63.9339 85.0706 63.9323 83.3333Z" fill="#0154CE"/>
<path d="M52.0276 66.3286L35.699 50H9.17041V57.1429L52.0276 100C52.0276 100 59.1704 95.2381 59.1704 83.3333C58.8009 77.0158 56.2803 71.015 52.0276 66.3286Z" fill="#2684FF"/>
</g>
<defs>
<clipPath id="clip0_73_28">
<rect width="100" height="100" fill="white"/>
</clipPath>
</defs>
</svg>
