<svg width="100" height="100" viewBox="0 0 100 100" fill="none" xmlns="http://www.w3.org/2000/svg">
<path d="M13.0208 4.16663C9.24584 4.16663 6.26277 6.16871 4.85027 9.63538C4.40443 10.7062 4.17898 11.8418 4.17481 13.0127C4.17064 16.8918 6.67058 20.0405 8.17058 21.9238C8.43308 22.253 8.66928 22.5462 8.91928 22.9003L9.59473 23.7955C10.2656 24.6747 11.0295 25.6718 11.2712 26.1718C11.3503 26.401 11.455 26.8028 11.5967 27.3112C12.2509 29.6653 13.4717 34.0406 15.4134 37.3697C16.1967 38.7114 17.2992 40.3977 18.0908 41.5852C17.5617 44.2352 16.6667 49.1166 16.6667 52.0833C16.6667 57.2916 17.7467 61.4744 20.1009 65.2994C20.9717 66.6661 23.6292 70.8333 28.125 70.8333C29.7208 70.8333 32.3725 70.2099 33.0892 66.2516C36.2767 70.3641 41.6667 75.5208 50 79.1666C50 79.1666 34.3783 60.9393 31.6325 49.5768C31.6325 49.5768 28.6443 52.6057 26.1068 58.789C25.3484 56.8807 25 54.7291 25 52.0833C25 49.4708 26.1492 43.6307 26.5951 41.6015L26.9857 39.8356L25.9603 38.3463C25.9436 38.3171 23.8447 35.287 22.6156 33.1787C21.2156 30.7787 20.1831 27.0649 19.6289 25.0732C19.3581 24.1024 19.1453 23.3998 18.9453 22.9248C18.2162 21.3456 17.1484 19.9587 16.2109 18.7337L15.6901 18.042C15.4276 17.6628 15.0808 17.2234 14.6891 16.7317C13.9266 15.7734 12.5072 13.9876 12.5488 12.8418L13.0127 12.5162L13.0208 12.5C16.3333 12.5 20.6003 14.8514 22.2087 15.7389C22.7337 16.0264 23.1194 16.225 23.3236 16.3167L24.0479 16.6341L25.472 16.6829C27.3345 16.7246 32.9954 16.857 36.9954 18.457C44.2913 21.3737 48.3251 24.2932 52.4251 29.6224C62.1085 42.214 65.6812 58.5207 65.7145 58.6832L66.2354 61.0351L68.514 61.7757C68.5932 61.8048 74.9705 63.936 80.9163 69.5068C73.4372 71.3568 70.8333 75 70.8333 75C70.8333 75 72.8167 78.8666 82.2917 84.8958C88.0208 88.5416 91.1458 91.1458 95.8333 95.8333C95.8333 95.8333 91.1487 85.4158 84.6029 77.1158C89.5862 75.52 95.7113 74.6907 95.7113 74.6907L91.9189 69.4336C85.6773 60.7794 77.3069 56.4119 73.3236 54.7119C71.9402 49.4369 67.7624 35.8942 59.0332 24.5442C54.0374 18.0484 48.7212 14.1638 40.0879 10.7096C34.9754 8.66793 28.828 8.42437 26.0905 8.35771C23.6947 7.04104 18.3708 4.16663 13.0208 4.16663ZM29.9479 20.8333C29.9479 20.8333 28.125 20.8333 26.0417 21.3541L31.7708 29.1585C33.3333 27.0835 33.3333 24.6582 33.3333 24.6582C33.3333 24.6582 32.2938 21.875 29.9479 20.8333Z" fill="#039BE5"/>
</svg>
