<svg width="201" height="201" viewBox="0 0 201 201" fill="none" xmlns="http://www.w3.org/2000/svg">
<path d="M9.08302 100.583C4.38859 100.583 0.545498 96.7706 0.944058 92.0932C1.81511 81.8702 4.25583 71.8248 8.19506 62.3147C13.2205 50.1821 20.5865 39.1582 29.8723 29.8723C39.1582 20.5865 50.1821 13.2205 62.3147 8.19506C74.4472 3.1696 87.4508 0.58302 100.583 0.58302C113.715 0.58302 126.719 3.1696 138.851 8.19506C150.984 13.2205 162.008 20.5865 171.294 29.8723C180.58 39.1582 187.945 50.1821 192.971 62.3147C196.91 71.8249 199.351 81.8702 200.222 92.0932C200.621 96.7707 196.777 100.583 192.083 100.583C187.389 100.583 183.628 96.7676 183.148 92.0978C182.327 84.1094 180.35 76.2672 177.265 68.8203C173.094 58.7503 166.98 49.6004 159.273 41.8932C151.566 34.1859 142.416 28.0722 132.346 23.901C122.276 19.7299 111.483 17.583 100.583 17.583C89.6833 17.583 78.8903 19.7299 68.8203 23.901C58.7503 28.0722 49.6004 34.1859 41.8932 41.8932C34.1859 49.6004 28.0722 58.7503 23.901 68.8203C20.8164 76.2672 18.8389 84.1094 18.0179 92.0978C17.538 96.7676 13.7774 100.583 9.08302 100.583Z" fill="#6C6C6C"/>
<path d="M9.08302 100.583C4.38859 100.583 0.545453 96.77 0.94389 92.0925C2.86995 69.4812 12.4458 48.0998 28.226 31.5579C45.9697 12.9577 70.1948 1.90495 95.8724 0.694027C121.55 -0.516895 146.708 8.20704 166.123 25.0548C183.39 40.0383 194.935 60.4236 198.981 82.7533C199.818 87.3725 196.351 91.5303 191.677 91.9721C187.003 92.4139 182.9 88.9689 181.983 84.3649C178.402 66.3878 168.946 50.0127 154.981 37.8946C138.866 23.911 117.986 16.6701 96.6732 17.6752C75.3608 18.6802 55.254 27.854 40.5267 43.2922C27.7643 56.6706 19.8913 73.8629 18.0177 92.0973C17.5379 96.7672 13.7774 100.583 9.08302 100.583Z" fill="url(#paint0_linear_72_19)"/>
<path d="M78.5165 100.292L83.604 94.3415C83.504 94.4415 83.329 94.5415 83.079 94.6415C82.829 94.7332 82.4998 94.779 82.0915 94.779C81.2332 94.779 80.404 94.5582 79.604 94.1165C78.8123 93.6748 78.1582 93.0457 77.6415 92.229C77.1332 91.404 76.879 90.4207 76.879 89.279C76.879 88.154 77.154 87.1582 77.704 86.2915C78.2623 85.4248 79.004 84.7415 79.929 84.2415C80.854 83.7415 81.879 83.4915 83.004 83.4915C84.154 83.4915 85.1915 83.729 86.1165 84.204C87.0415 84.6707 87.779 85.3498 88.329 86.2415C88.8873 87.1248 89.1665 88.1832 89.1665 89.4165C89.1665 90.7748 88.9457 91.9207 88.504 92.854C88.0623 93.779 87.5582 94.5832 86.9915 95.2665L82.8915 100.292H78.5165ZM83.0165 91.7915C83.5082 91.7915 83.9498 91.6748 84.3415 91.4415C84.7415 91.2082 85.0582 90.8915 85.2915 90.4915C85.5332 90.0915 85.654 89.6498 85.654 89.1665C85.654 88.6832 85.5332 88.2415 85.2915 87.8415C85.0582 87.4415 84.7415 87.1248 84.3415 86.8915C83.9415 86.6582 83.4998 86.5415 83.0165 86.5415C82.5332 86.5415 82.0915 86.6623 81.6915 86.904C81.2998 87.1373 80.9832 87.454 80.7415 87.854C80.5082 88.2457 80.3915 88.6832 80.3915 89.1665C80.3915 89.6498 80.5082 90.0915 80.7415 90.4915C80.9832 90.8915 81.304 91.2082 81.704 91.4415C82.104 91.6748 82.5415 91.7915 83.0165 91.7915ZM91.6415 83.7915H103.504V86.304L95.5415 100.292H91.4165L99.1415 87.0415H91.6415V83.7915ZM117.84 83.7915H120.315L109.99 100.292H107.515L117.84 83.7915ZM104.627 87.429C104.627 86.704 104.81 86.0457 105.177 85.454C105.544 84.854 106.052 84.379 106.702 84.029C107.36 83.6707 108.123 83.4915 108.99 83.4915C109.848 83.4915 110.602 83.6707 111.252 84.029C111.902 84.379 112.41 84.854 112.777 85.454C113.144 86.0457 113.327 86.704 113.327 87.429C113.327 88.1373 113.144 88.7915 112.777 89.3915C112.419 89.9832 111.915 90.4623 111.265 90.829C110.615 91.1873 109.856 91.3665 108.99 91.3665C108.115 91.3665 107.348 91.1873 106.69 90.829C106.04 90.4623 105.531 89.9832 105.165 89.3915C104.806 88.7915 104.627 88.1373 104.627 87.429ZM107.202 87.429C107.202 87.9707 107.365 88.4082 107.69 88.7415C108.023 89.0748 108.452 89.2415 108.977 89.2415C109.494 89.2415 109.91 89.0748 110.227 88.7415C110.552 88.4082 110.715 87.9707 110.715 87.429C110.715 86.8957 110.552 86.4582 110.227 86.1165C109.91 85.7665 109.494 85.5915 108.977 85.5915C108.46 85.5915 108.035 85.7665 107.702 86.1165C107.369 86.4582 107.202 86.8957 107.202 87.429ZM114.465 96.654C114.465 95.929 114.648 95.2707 115.015 94.679C115.381 94.0873 115.894 93.6123 116.552 93.254C117.21 92.8957 117.969 92.7165 118.827 92.7165C119.685 92.7165 120.44 92.8957 121.09 93.254C121.748 93.6123 122.26 94.0873 122.627 94.679C122.994 95.2707 123.177 95.929 123.177 96.654C123.177 97.3623 122.994 98.0165 122.627 98.6165C122.269 99.2165 121.76 99.6957 121.102 100.054C120.452 100.412 119.694 100.592 118.827 100.592C117.952 100.592 117.185 100.412 116.527 100.054C115.877 99.6957 115.369 99.2165 115.002 98.6165C114.644 98.0165 114.465 97.3623 114.465 96.654ZM117.052 96.654C117.052 97.1957 117.215 97.6332 117.54 97.9665C117.865 98.2998 118.294 98.4665 118.827 98.4665C119.335 98.4665 119.748 98.2998 120.065 97.9665C120.39 97.6332 120.552 97.1957 120.552 96.654C120.552 96.1207 120.39 95.6832 120.065 95.3415C119.748 94.9915 119.335 94.8165 118.827 94.8165C118.302 94.8165 117.873 94.9915 117.54 95.3415C117.215 95.6832 117.052 96.1207 117.052 96.654Z" fill="white"/>
<defs>
<linearGradient id="paint0_linear_72_19" x1="14.0644" y1="94.3356" x2="183.54" y2="85.8407" gradientUnits="userSpaceOnUse">
<stop stop-color="#763CAC"/>
<stop offset="1" stop-color="#F729E3" stop-opacity="0.57"/>
</linearGradient>
</defs>
</svg>
