<svg width="100" height="100" viewBox="0 0 100 100" fill="none" xmlns="http://www.w3.org/2000/svg">
<path d="M37.7604 14.5834L37.5 31.25H10.4167C10.4167 31.25 10.4167 25.9021 10.4167 21.875C10.4167 17.848 13.6813 14.5834 17.7083 14.5834C21.7354 14.5834 37.7604 14.5834 37.7604 14.5834Z" fill="#37474F"/>
<path d="M62.5188 11.723L66.3729 5.22922C66.9604 4.23963 66.6333 2.96047 65.6458 2.37297C64.6563 1.78338 63.3792 2.11255 62.7896 3.10005L58.7375 9.92505C56.0188 8.90838 53.0792 8.33338 50 8.33338C46.9208 8.33338 43.9813 8.90838 41.2604 9.92713L37.2083 3.10213C36.6208 2.11463 35.3438 1.78547 34.3521 2.37505C33.3625 2.96255 33.0375 4.24172 33.625 5.2313L37.4792 11.725C30.6021 15.725 25.7958 22.8959 25.1042 31.2521H74.8958C74.2042 22.8938 69.3979 15.723 62.5188 11.723Z" fill="#00E676"/>
<path d="M39.5833 22.9167C40.7339 22.9167 41.6667 21.9839 41.6667 20.8333C41.6667 19.6827 40.7339 18.75 39.5833 18.75C38.4327 18.75 37.5 19.6827 37.5 20.8333C37.5 21.9839 38.4327 22.9167 39.5833 22.9167Z" fill="white"/>
<path d="M60.4167 22.9167C61.5673 22.9167 62.5 21.9839 62.5 20.8333C62.5 19.6827 61.5673 18.75 60.4167 18.75C59.2661 18.75 58.3333 19.6827 58.3333 20.8333C58.3333 21.9839 59.2661 22.9167 60.4167 22.9167Z" fill="white"/>
<path d="M82.2917 29.1667C81.2625 29.1667 19.5 29.1667 17.7083 29.1667C13.6813 29.1667 10.4167 25.9021 10.4167 21.875C10.4167 21.875 10.4167 74.0979 10.4167 78.125C10.4167 82.1521 13.6813 85.4167 17.7083 85.4167C19.5 85.4167 89.5833 85.4167 89.5833 85.4167C89.5833 85.4167 89.5833 40.4854 89.5833 36.4583C89.5833 32.4312 86.3188 29.1667 82.2917 29.1667Z" fill="#448AFF"/>
<path d="M82.2917 43.75C81.5792 43.75 80.4771 43.75 79.1667 43.75V97.6563C80.4771 97.6563 81.5792 97.6563 82.2917 97.6563C86.3187 97.6563 89.5833 94.3917 89.5833 90.3646C89.5833 86.3375 89.5833 36.4584 89.5833 36.4584C89.5833 40.4855 86.3187 43.75 82.2917 43.75Z" fill="#37474F"/>
<path d="M70.35 91.7937L54.8417 58.8375C56.9479 57.3229 58.3333 54.8687 58.3333 52.0833C58.3333 48.2125 55.6667 44.9771 52.0833 44.0458V39.5833C52.0833 38.4333 51.15 37.5 50 37.5C48.85 37.5 47.9167 38.4333 47.9167 39.5833V44.0458C44.3333 44.9771 41.6667 48.2125 41.6667 52.0833C41.6667 54.8687 43.0521 57.3229 45.1583 58.8375L29.6583 91.7771C28.775 93.6542 29.2396 95.9958 30.95 97.1687C33.1313 98.6646 36.0271 97.8125 37.1042 95.5229L46.7771 74.9687C48.0604 72.2417 51.9417 72.2417 53.225 74.9687L62.8979 95.5229C63.6063 97.0333 65.1042 97.9167 66.6687 97.9167C67.525 97.9167 68.4021 97.65 69.175 97.0792C70.7958 95.8833 71.2083 93.6167 70.35 91.7937ZM50 47.9167C52.2979 47.9167 54.1667 49.7854 54.1667 52.0833C54.1667 54.3812 52.2979 56.25 50 56.25C47.7021 56.25 45.8333 54.3812 45.8333 52.0833C45.8333 49.7854 47.7021 47.9167 50 47.9167Z" fill="#37474F"/>
</svg>
