<svg width="100" height="100" viewBox="0 0 100 100" fill="none" xmlns="http://www.w3.org/2000/svg">
<path d="M20.8334 25L27.0834 77.0833L10.3771 60.3771C7.90003 57.9 7.23545 54.1354 8.71878 50.9604L20.8334 25Z" fill="#1565C0"/>
<path d="M56.9146 13.1645C55.1541 11.4041 52.7687 10.4166 50.2812 10.4166C48.7291 10.4166 47.2 10.802 45.8333 11.5375L20.8333 25V67.3812C20.8333 69.5916 21.7104 71.7104 23.275 73.2729L27.0833 77.0833H72.9166V66.6666L87.5 43.75L56.9146 13.1645Z" fill="#42A5F5"/>
<path d="M20.8333 25H65.2979C67.5083 25 69.6271 25.8771 71.1896 27.4417L87.5 43.75V77.0833H72.9166L20.8333 25Z" fill="#1565C0"/>
<path d="M72.9166 77.0834H27.0833L39.5833 89.5834H72.9166V77.0834Z" fill="#85CBF8"/>
</svg>
