<svg width="100" height="100" viewBox="0 0 100 100" fill="none" xmlns="http://www.w3.org/2000/svg">
<path d="M50 12.5L37.4792 25.7292L24.9375 38.9375L12.5 52.0833V12.5H50Z" fill="#0D91D6"/>
<path d="M50 12.5H49.9167L37.4375 25.6875L24.9167 38.9167L12.5 52.0208V52.0833V52.2708V87.5L30.6042 69.3958L43.4792 56.5208L56.375 43.625L69.2708 30.7292L87.5 12.5H50Z" fill="#F88909"/>
<path d="M30.6042 69.3959L12.5 87.5V52.2709L30.6042 69.3959Z" fill="#C757BC"/>
<path d="M43.4792 56.5208L30.6042 69.3958L12.5 52.2708V52.0833L24.9375 38.9375L43.4792 56.5208Z" fill="#D3638F"/>
<path d="M56.375 43.625L43.4792 56.5208L24.9375 38.9375L37.4792 25.7291L56.375 43.625Z" fill="#E07063"/>
<path d="M69.2709 30.7292L56.375 43.625L37.4792 25.7292L50 12.5L69.2709 30.7292Z" fill="#EC7D36"/>
<path d="M87.5 12.5L69.2708 30.7292L50 12.5H87.5Z" fill="#F88909"/>
<path d="M23.9792 39.8958L16.6458 47.6666L12.5 43.75V29.0416L23.9792 39.8958Z" fill="#0095D5"/>
<path d="M31.3125 32.125L23.9792 39.8958L12.5 29.0417V14.3125L31.3125 32.125Z" fill="#2B88DA"/>
<path d="M38.6667 24.375L31.3125 32.125L12.5 14.3125V12.5H26.1042L38.6667 24.375Z" fill="#557BDE"/>
<path d="M46 16.6042L38.6667 24.375L26.1042 12.5H50L46 16.6042Z" fill="#806EE3"/>
<path d="M47.9167 52.0834L12.5 87.5H19.4792H36.5H83.3333L47.9167 52.0834Z" fill="#0095D5"/>
<path d="M53.5 87.5H36.5L24.5 75.5209L33 67.0209L53.5 87.5Z" fill="#2B88DA"/>
<path d="M70.5417 87.5H53.5L33 67.0209L41.5 58.5209L70.5417 87.5Z" fill="#557BDE"/>
<path d="M87.5 87.5H70.5417L41.5 58.5208L50 50L87.5 87.5Z" fill="#806EE3"/>
</svg>
