<svg width="100" height="100" viewBox="0 0 100 100" fill="none" xmlns="http://www.w3.org/2000/svg">
<ellipse cx="50" cy="39" rx="48" ry="26" fill="white"/>
<path d="M50 13C23.0859 13 2 24.4219 2 39C2 53.5781 23.0859 65 50 65C76.9141 65 98 53.5781 98 39C98 24.4219 76.9141 13 50 13ZM45.0156 21H50.2578L48.5938 29H53.2734C56.2422 29 58.2344 29.4141 59.3672 30.4531C60.4766 31.4766 60.8125 33.1563 60.3672 35.4453L58.2891 45H52.9609L54.875 36.1641C55.1094 34.9531 55.0156 34.1094 54.6094 33.6641C54.2031 33.2188 53.3125 33 51.9766 33H47.7812L45.25 45H40L45.0156 21ZM22 29H32.6641C37.75 29 40.8281 32.4062 39.625 37.4922C38.2266 43.3984 34.4766 45 27.5859 45H24.2891L23.2422 51H17.9453L22 29ZM64 29H74.6641C79.75 29 82.8281 32.4062 81.625 37.4922C80.2266 43.3984 76.4766 45 69.5859 45H66.2891L65.2422 51H59.9453L64 29ZM26.5391 33L25.0312 41H28.4531C31.4141 41 34.1641 40.6641 34.625 36.25C34.7969 34.5391 34.0859 33 30.6641 33H26.5391ZM68.5391 33L67.0312 41H70.4531C73.4141 41 76.1641 40.6641 76.625 36.25C76.7969 34.5391 76.0859 33 72.6641 33H68.5391Z" fill="#1565C0"/>
</svg>
