<svg width="100" height="100" viewBox="0 0 100 100" fill="none" xmlns="http://www.w3.org/2000/svg">
<path d="M58.125 50C58.125 54.4912 54.4912 58.125 50 58.125C45.5088 58.125 41.875 54.4912 41.875 50C41.875 45.5088 45.5088 41.875 50 41.875C54.4912 41.875 58.125 45.5088 58.125 50Z" fill="#0277BD"/>
<path d="M30.5925 94.3787C28.4538 94.3787 26.5062 93.8887 24.8025 92.9237C21.9525 91.3075 19.9825 88.5225 18.945 84.6487C17.7388 80.14 17.8825 74.1512 19.36 67.3012C7.445 63.2025 0.625 56.9137 0.625 50C0.625 43.085 7.44375 36.7975 19.3588 32.7C17.8813 25.8487 17.7363 19.86 18.9425 15.3512C19.98 11.4762 21.95 8.69122 24.7988 7.07622C26.5013 6.11122 28.45 5.62122 30.5888 5.62122C36.0738 5.62122 42.9525 9.03372 50.0025 15.2437C57.0525 9.03997 63.9288 5.62997 69.4075 5.62997C71.5463 5.62997 73.4938 6.11997 75.1975 7.08497C78.0438 8.69872 80.015 11.4787 81.0525 15.3487C82.26 19.8562 82.115 25.8462 80.6363 32.6987C92.5538 36.7962 99.375 43.085 99.375 50C99.375 56.915 92.5538 63.2037 80.6363 67.3025C82.1138 74.1537 82.2588 80.1425 81.0513 84.65C80.0138 88.5212 78.045 91.3012 75.2012 92.915C73.4962 93.88 71.5475 94.37 69.41 94.37C63.9275 94.37 57.0487 90.96 50.0012 84.7587C42.9512 90.9675 36.0738 94.3787 30.5925 94.3787ZM24.1712 68.7575C22.9325 74.6537 22.7937 79.6912 23.7762 83.3562C24.4537 85.8887 25.6275 87.645 27.2688 88.575C28.21 89.1087 29.3288 89.38 30.5925 89.38C34.835 89.38 40.42 86.5275 46.3688 81.3337C43.3875 78.3312 40.4775 74.9325 37.7087 71.22C32.92 70.7 28.37 69.8725 24.1712 68.7575ZM53.6325 81.3312C59.58 86.52 65.1663 89.37 69.4088 89.3712C70.6725 89.3712 71.7912 89.1 72.735 88.5662C74.3712 87.6387 75.5425 85.8862 76.2187 83.3575C77.2012 79.69 77.0637 74.6537 75.825 68.7587C71.6225 69.8737 67.0712 70.7012 62.2837 71.2212C59.5162 74.9337 56.61 78.3312 53.6325 81.3312ZM44.4575 71.7412C46.2725 73.9612 48.13 76.0325 50 77.9162C51.865 76.0337 53.7238 73.9625 55.5375 71.7412C53.6738 71.83 51.8175 71.875 50 71.875C48.1812 71.875 46.3238 71.83 44.4575 71.7412ZM40.4362 66.4737C43.555 66.74 46.7713 66.875 50 66.875C53.2313 66.875 56.4437 66.74 59.5575 66.475C61.415 63.87 63.1863 61.14 64.825 58.3562C66.41 55.6625 67.9013 52.8512 69.2588 49.9987C67.905 47.1537 66.415 44.3437 64.8263 41.6437C63.1913 38.8662 61.42 36.1362 59.5575 33.525C56.4462 33.26 53.2337 33.125 50 33.125C46.765 33.125 43.5513 33.26 40.4413 33.5262C38.5788 36.1337 36.805 38.8637 35.1675 41.645C33.58 44.3437 32.09 47.1537 30.735 50.0025C32.0875 52.845 33.5775 55.655 35.1662 58.3575C36.7962 61.1262 38.5675 63.855 40.4362 66.4737ZM71.8638 55.9737C70.9813 57.6562 70.0662 59.3062 69.1325 60.8912C68.1912 62.4937 67.19 64.1012 66.15 65.6862C69.1175 65.2287 71.9563 64.6425 74.6138 63.9362C73.8763 61.375 72.9525 58.7037 71.8638 55.9737ZM25.38 63.935C28.0388 64.64 30.8763 65.2275 33.84 65.685C32.7938 64.09 31.7925 62.4812 30.8575 60.8912C29.9263 59.3075 29.01 57.66 28.1288 55.9775C27.045 58.695 26.1225 61.3637 25.38 63.935ZM74.77 50C76.68 54.2387 78.2362 58.4287 79.405 62.4712C88.6575 59.2162 94.375 54.4675 94.375 50C94.375 45.5325 88.6575 40.7837 79.405 37.5287C78.2387 41.5712 76.6813 45.7612 74.77 50ZM20.59 37.5312C11.3412 40.785 5.625 45.5337 5.625 50C5.625 54.4675 11.3413 59.2162 20.5925 62.47C21.76 58.4262 23.3163 54.2362 25.2238 50.0025C23.315 45.7675 21.7588 41.5775 20.59 37.5312ZM25.3787 36.065C26.1212 38.6325 27.0438 41.3025 28.1288 44.025C29.0088 42.3475 29.9238 40.6987 30.8588 39.11C31.7988 37.5112 32.8 35.9037 33.8438 34.315C30.8763 34.7712 28.0387 35.3587 25.3787 36.065ZM66.1525 34.3137C67.1988 35.91 68.2 37.5175 69.135 39.11C70.0675 40.6937 70.9838 42.3425 71.8663 44.025C72.9525 41.3037 73.875 38.6337 74.6175 36.0637C71.955 35.3575 69.1175 34.77 66.1525 34.3137ZM30.5888 10.6212C29.325 10.6212 28.2075 10.8912 27.2675 11.4262C25.6275 12.3562 24.4525 14.1125 23.7737 16.645C22.7925 20.3137 22.93 25.35 24.17 31.2437C28.37 30.1287 32.9225 29.3 37.7125 28.78C40.4838 25.0662 43.3938 21.67 46.3713 18.67C40.4212 13.4737 34.8325 10.6212 30.5888 10.6212ZM62.285 28.7787C67.0725 29.2987 71.6237 30.1262 75.8262 31.2412C77.0662 25.3462 77.205 20.3087 76.2213 16.6412C75.5438 14.1137 74.3713 12.3612 72.7338 11.4337C71.7913 10.9 70.6725 10.6287 69.4075 10.6287C65.1663 10.6287 59.5825 13.48 53.6338 18.67C56.6088 21.6687 59.5162 25.0662 62.285 28.7787ZM50 28.125C51.8175 28.125 53.6737 28.17 55.5387 28.2587C53.7262 26.0412 51.8687 23.9712 50.0025 22.0862C48.1312 23.9737 46.275 26.0437 44.4625 28.2587C46.3262 28.17 48.1825 28.125 50 28.125Z" fill="#1565C0"/>
</svg>
