<svg width="100" height="100" viewBox="0 0 100 100" fill="none" xmlns="http://www.w3.org/2000/svg">
<path d="M84.6875 40.9417C84.6875 21.7834 69.1542 6.25004 49.9958 6.25004C32.9188 6.22504 18.3646 18.6375 15.6938 35.5042C13.0229 52.3709 23.3354 68.6709 39.5833 73.9271V91.3105C39.5833 92.6584 40.675 93.75 42.0229 93.75H57.9771C59.325 93.75 60.4167 92.6584 60.4167 91.3105V73.9396C74.7479 69.325 84.6708 55.998 84.6875 40.9417ZM49.9958 52.6646C43.5188 52.6646 38.2667 47.4125 38.2667 40.9355C38.2667 34.4584 43.5188 29.2063 49.9958 29.2063C56.4729 29.2063 61.725 34.4584 61.725 40.9355C61.725 47.4125 56.4729 52.6646 49.9958 52.6646Z" fill="#2684FF"/>
<path d="M49.7396 6.25003V29.2209C56.2166 29.2209 61.4687 34.4729 61.4687 40.95C61.4687 47.4271 56.2166 52.6792 49.7396 52.6792C52.5833 52.6792 55.3104 53.8084 57.3208 55.8188C59.3312 57.8292 60.4604 60.5563 60.4604 63.4V73.9521C76.7146 68.6959 86.7229 52.3896 84.05 35.5167C81.3791 18.6438 66.8229 6.22712 49.7396 6.25003Z" fill="url(#paint0_linear_68_178)"/>
<path opacity="0.05" d="M54.6646 51.6937C54.1458 51.9187 53.6062 52.1 53.0521 52.25C52.075 52.5125 51.0541 52.6666 49.9937 52.6666H49.9875C49.9041 52.6687 49.8229 52.6791 49.7396 52.6791C52.5833 52.6791 55.3104 53.8083 57.3208 55.8187C59.3312 57.8291 60.4604 60.5562 60.4604 63.4V73.9229C60.8 73.8125 61.1229 73.6771 61.4562 73.5583C61.8041 73.4333 62.1541 73.3104 62.4979 73.1771V63.2833C62.5 58.0375 59.2521 53.5458 54.6646 51.6937Z" fill="black"/>
<path opacity="0.07" d="M53.0541 52.2479C52.0771 52.5104 51.0562 52.6646 49.9958 52.6646H49.9896C49.9062 52.6667 49.825 52.6771 49.7416 52.6771C52.5854 52.6771 55.3125 53.8063 57.3229 55.8167C59.3333 57.8271 60.4625 60.5542 60.4625 63.3979V73.9208C60.8021 73.8104 61.125 73.675 61.4583 73.5563V63.2792C61.4583 58.0208 57.8916 53.5896 53.0541 52.2479Z" fill="black"/>
<defs>
<linearGradient id="paint0_linear_68_178" x1="67.1104" y1="73.9521" x2="67.1104" y2="6.25003" gradientUnits="userSpaceOnUse">
<stop stop-color="#0052CC"/>
<stop offset="0.044" stop-color="#0255CF"/>
<stop offset="0.464" stop-color="#1C77F2"/>
<stop offset="0.732" stop-color="#2684FF"/>
</linearGradient>
</defs>
</svg>
