<svg width="201" height="201" viewBox="0 0 201 201" fill="none" xmlns="http://www.w3.org/2000/svg">
<path d="M9.08302 100.292C4.38859 100.292 0.545498 96.4791 0.944058 91.8017C1.81511 81.5787 4.25583 71.5333 8.19506 62.0232C13.2205 49.8906 20.5865 38.8667 29.8723 29.5808C39.1582 20.295 50.1821 12.929 62.3147 7.90356C74.4472 2.87809 87.4508 0.291516 100.583 0.291516C113.715 0.291516 126.719 2.87809 138.851 7.90356C150.984 12.929 162.008 20.295 171.294 29.5808C180.58 38.8667 187.945 49.8906 192.971 62.0232C196.91 71.5333 199.351 81.5787 200.222 91.8017C200.621 96.4791 196.777 100.292 192.083 100.292C187.389 100.292 183.628 96.4761 183.148 91.8063C182.327 83.8179 180.35 75.9757 177.265 68.5288C173.094 58.4588 166.98 49.3089 159.273 41.6016C151.566 33.8944 142.416 27.7806 132.346 23.6095C122.276 19.4384 111.483 17.2915 100.583 17.2915C89.6833 17.2915 78.8903 19.4384 68.8203 23.6095C58.7503 27.7806 49.6004 33.8944 41.8932 41.6016C34.1859 49.3089 28.0722 58.4588 23.901 68.5288C20.8164 75.9757 18.8389 83.8179 18.0179 91.8063C17.538 96.4761 13.7774 100.292 9.08302 100.292Z" fill="#6C6C6C"/>
<path d="M9.08302 100.292C4.38859 100.292 0.545468 96.479 0.943951 91.8015C2.59884 72.3763 9.9053 53.7893 22.0513 38.3821C35.9573 20.7424 55.3972 8.29815 77.2385 3.05453C99.0797 -2.18911 122.05 0.0732999 142.449 9.4772C160.266 17.6909 175.214 30.9349 185.508 47.4917C187.986 51.4784 186.293 56.6202 182.11 58.7514C177.927 60.8826 172.844 59.1901 170.297 55.2471C161.786 42.0745 149.679 31.5299 135.332 24.9156C118.401 17.1104 99.3353 15.2326 81.207 19.5848C63.0788 23.937 46.9437 34.2658 35.4017 48.9067C25.6208 61.3138 19.621 76.2052 18.0178 91.8061C17.5379 96.4759 13.7774 100.292 9.08302 100.292Z" fill="url(#paint0_linear_85_25)"/>
<path d="M83.154 100.3C82.0707 100.3 81.0707 100.092 80.154 99.675C79.2373 99.2583 78.4998 98.6833 77.9415 97.95C77.3832 97.2083 77.104 96.3625 77.104 95.4125C77.104 94.6458 77.229 93.9875 77.479 93.4375C77.7373 92.8875 78.0873 92.425 78.529 92.05C78.979 91.6667 79.4748 91.35 80.0165 91.1C79.6082 90.8667 79.2332 90.5958 78.8915 90.2875C78.5582 89.9708 78.2915 89.5917 78.0915 89.15C77.8998 88.7083 77.804 88.1667 77.804 87.525C77.804 86.6417 78.0457 85.8792 78.529 85.2375C79.0123 84.5875 79.654 84.0875 80.454 83.7375C81.2623 83.3792 82.154 83.2 83.129 83.2C84.1207 83.2 85.0123 83.3792 85.804 83.7375C86.604 84.0875 87.2332 84.5875 87.6915 85.2375C88.1582 85.8792 88.3915 86.6417 88.3915 87.525C88.3915 88.475 88.1873 89.2208 87.779 89.7625C87.3707 90.2958 86.8582 90.7417 86.2415 91.1C86.7915 91.35 87.2832 91.6667 87.7165 92.05C88.1582 92.425 88.5082 92.8875 88.7665 93.4375C89.0332 93.9875 89.1665 94.6458 89.1665 95.4125C89.1665 96.3625 88.8873 97.2083 88.329 97.95C87.779 98.6833 87.0457 99.2583 86.129 99.675C85.2207 100.092 84.229 100.3 83.154 100.3ZM83.129 97.05C83.529 97.05 83.8873 96.9542 84.204 96.7625C84.529 96.5708 84.7873 96.3167 84.979 96C85.179 95.675 85.279 95.3167 85.279 94.925C85.279 94.5333 85.179 94.175 84.979 93.85C84.7873 93.525 84.529 93.2708 84.204 93.0875C83.8873 92.8958 83.529 92.8 83.129 92.8C82.729 92.8 82.3665 92.8958 82.0415 93.0875C81.7248 93.2792 81.4665 93.5375 81.2665 93.8625C81.0748 94.1792 80.979 94.5333 80.979 94.925C80.979 95.3167 81.0748 95.675 81.2665 96C81.4665 96.3167 81.7248 96.5708 82.0415 96.7625C82.3665 96.9542 82.729 97.05 83.129 97.05ZM83.1415 89.925C83.4915 89.925 83.8082 89.8417 84.0915 89.675C84.3832 89.5 84.6165 89.2667 84.7915 88.975C84.9665 88.675 85.054 88.35 85.054 88C85.054 87.65 84.9665 87.3333 84.7915 87.05C84.6165 86.7583 84.3832 86.525 84.0915 86.35C83.8082 86.175 83.4915 86.0875 83.1415 86.0875C82.7915 86.0875 82.4707 86.175 82.179 86.35C81.8873 86.525 81.654 86.7583 81.479 87.05C81.304 87.3333 81.2165 87.65 81.2165 88C81.2165 88.35 81.304 88.6708 81.479 88.9625C81.654 89.2542 81.8873 89.4875 82.179 89.6625C82.4707 89.8375 82.7915 89.925 83.1415 89.925ZM94.0302 95.35C94.1052 95.5833 94.2093 95.8083 94.3427 96.025C94.476 96.2417 94.6427 96.4375 94.8427 96.6125C95.0427 96.7875 95.2843 96.925 95.5677 97.025C95.851 97.125 96.1843 97.175 96.5677 97.175C97.3427 97.175 97.9427 96.9292 98.3677 96.4375C98.801 95.9375 99.0135 95.2917 99.0052 94.5C98.9968 93.7417 98.7885 93.1458 98.3802 92.7125C97.9802 92.2792 97.4302 92.0625 96.7302 92.0625C96.2802 92.0625 95.8927 92.1417 95.5677 92.3C95.2427 92.4583 94.976 92.6417 94.7677 92.85C94.5677 93.0583 94.426 93.25 94.3427 93.425L91.2552 92.3L92.7177 83.5H101.993V86.75H95.8552L95.3427 89.8625C95.3843 89.8042 95.5135 89.7125 95.7302 89.5875C95.9552 89.4625 96.2468 89.35 96.6052 89.25C96.9718 89.1417 97.3843 89.0875 97.8427 89.0875C98.6593 89.0875 99.4427 89.2667 100.193 89.625C100.943 89.9833 101.559 90.5458 102.043 91.3125C102.526 92.0792 102.768 93.0708 102.768 94.2875C102.768 95.5042 102.505 96.5667 101.98 97.475C101.464 98.375 100.751 99.0708 99.8427 99.5625C98.9343 100.054 97.8927 100.3 96.7177 100.3C95.826 100.3 95.0427 100.196 94.3677 99.9875C93.701 99.7708 93.1302 99.4875 92.6552 99.1375C92.1802 98.7875 91.7927 98.4083 91.4927 98C91.201 97.5833 90.9802 97.175 90.8302 96.775L94.0302 95.35ZM117.669 83.5H120.144L109.819 100H107.344L117.669 83.5ZM104.456 87.1375C104.456 86.4125 104.639 85.7542 105.006 85.1625C105.373 84.5625 105.881 84.0875 106.531 83.7375C107.189 83.3792 107.952 83.2 108.819 83.2C109.677 83.2 110.431 83.3792 111.081 83.7375C111.731 84.0875 112.239 84.5625 112.606 85.1625C112.973 85.7542 113.156 86.4125 113.156 87.1375C113.156 87.8458 112.973 88.5 112.606 89.1C112.248 89.6917 111.744 90.1708 111.094 90.5375C110.444 90.8958 109.685 91.075 108.819 91.075C107.944 91.075 107.177 90.8958 106.519 90.5375C105.869 90.1708 105.36 89.6917 104.994 89.1C104.635 88.5 104.456 87.8458 104.456 87.1375ZM107.031 87.1375C107.031 87.6792 107.194 88.1167 107.519 88.45C107.852 88.7833 108.281 88.95 108.806 88.95C109.323 88.95 109.739 88.7833 110.056 88.45C110.381 88.1167 110.544 87.6792 110.544 87.1375C110.544 86.6042 110.381 86.1667 110.056 85.825C109.739 85.475 109.323 85.3 108.806 85.3C108.289 85.3 107.864 85.475 107.531 85.825C107.198 86.1667 107.031 86.6042 107.031 87.1375ZM114.294 96.3625C114.294 95.6375 114.477 94.9792 114.844 94.3875C115.21 93.7958 115.723 93.3208 116.381 92.9625C117.039 92.6042 117.798 92.425 118.656 92.425C119.514 92.425 120.269 92.6042 120.919 92.9625C121.577 93.3208 122.089 93.7958 122.456 94.3875C122.823 94.9792 123.006 95.6375 123.006 96.3625C123.006 97.0708 122.823 97.725 122.456 98.325C122.098 98.925 121.589 99.4042 120.931 99.7625C120.281 100.121 119.523 100.3 118.656 100.3C117.781 100.3 117.014 100.121 116.356 99.7625C115.706 99.4042 115.198 98.925 114.831 98.325C114.473 97.725 114.294 97.0708 114.294 96.3625ZM116.881 96.3625C116.881 96.9042 117.044 97.3417 117.369 97.675C117.694 98.0083 118.123 98.175 118.656 98.175C119.164 98.175 119.577 98.0083 119.894 97.675C120.219 97.3417 120.381 96.9042 120.381 96.3625C120.381 95.8292 120.219 95.3917 119.894 95.05C119.577 94.7 119.164 94.525 118.656 94.525C118.131 94.525 117.702 94.7 117.369 95.05C117.044 95.3917 116.881 95.8292 116.881 96.3625Z" fill="white"/>
<defs>
<linearGradient id="paint0_linear_85_25" x1="14.0644" y1="94.0441" x2="183.54" y2="85.5492" gradientUnits="userSpaceOnUse">
<stop stop-color="#763CAC"/>
<stop offset="1" stop-color="#F729E3" stop-opacity="0.57"/>
</linearGradient>
</defs>
</svg>
