<svg width="100" height="100" viewBox="0 0 100 100" fill="none" xmlns="http://www.w3.org/2000/svg">
<path d="M91.6667 23.1459V76.8542C91.6667 79.5 90.0208 81.8542 87.5417 82.7292L69.1667 91.3542L70.8333 68.75V31.25L69.1667 8.64587L87.5417 17.2709C90.0208 18.1459 91.6667 20.5 91.6667 23.1459Z" fill="#CE93D8"/>
<path d="M9.2 70.448L15.7813 74.5105C17.3083 75.4271 19.2479 75.2709 20.6104 74.1251L70.8333 33.2042V11.1521C70.8333 8.6563 67.7458 7.48963 66.0938 9.36047L18.75 62.2355L9.2 70.448Z" fill="#8E24AA"/>
<path d="M9.2 29.5521L15.7813 25.4895C17.3083 24.5729 19.2479 24.7291 20.6104 25.875L70.8333 66.7979V88.85C70.8333 91.3458 67.7458 92.5125 66.0938 90.6416L18.75 37.7646L9.2 29.5521Z" fill="#AB47BC"/>
<path d="M18.75 37.7709V62.2292L12.0833 70.0209C10.875 71.6042 8.33334 70.75 8.33334 68.75V31.25C8.33334 29.25 10.875 28.3959 12.0833 29.9792L18.75 37.7709Z" fill="#6A1B9A"/>
</svg>
